<?xml version="1.0" standalone="no"?>
<!DOCTYPE svg PUBLIC "-//W3C//DTD SVG 20010904//EN"
 "http://www.w3.org/TR/2001/REC-SVG-20010904/DTD/svg10.dtd">
<svg version="1.0" xmlns="http://www.w3.org/2000/svg"
 width="498.000000pt" height="209.000000pt" viewBox="0 0 498.000000 209.000000"
 preserveAspectRatio="xMidYMid meet">
<metadata>
Created by potrace 1.16, written by Peter Selinger 2001-2019
</metadata>
<g transform="translate(0.000000,209.000000) scale(0.100000,-0.100000)"
fill="#000000" stroke="none">
<path d="M2350 2076 c-71 -15 -155 -46 -198 -73 -237 -148 -352 -461 -352
-958 0 -595 165 -929 505 -1020 135 -36 312 -30 450 17 296 99 455 449 455
1003 0 365 -69 644 -202 820 -76 99 -176 166 -303 200 -82 23 -272 28 -355 11z
m252 -217 c163 -35 266 -153 321 -367 21 -82 22 -108 22 -442 0 -310 -2 -365
-18 -435 -25 -106 -84 -230 -135 -282 -102 -104 -278 -140 -437 -88 -151 49
-250 203 -285 441 -8 53 -10 189 -8 409 5 366 12 416 80 555 83 170 261 251
460 209z"/>
<path d="M2415 1210 c-17 -5 -44 -23 -60 -40 -29 -30 -30 -35 -30 -125 0 -90
1 -95 30 -125 36 -38 92 -54 171 -47 72 5 110 22 138 60 17 24 21 43 21 112 0
93 -16 127 -71 154 -35 17 -157 24 -199 11z"/>
<path d="M437 1353 l-437 -706 0 -109 0 -108 495 0 495 0 0 -195 0 -195 120 0
120 0 0 195 0 195 150 0 150 0 0 105 0 105 -150 0 -150 0 0 710 0 710 -177 0
-178 0 -438 -707z m553 -108 l0 -605 -376 0 c-207 0 -374 4 -372 8 5 13 743
1201 746 1202 1 0 2 -272 2 -605z"/>
<path d="M3888 1353 l-438 -706 0 -109 0 -108 495 0 495 0 0 -195 0 -195 120
0 120 0 0 195 0 195 150 0 150 0 0 105 0 105 -150 0 -150 0 0 710 0 710 -177
0 -178 0 -437 -707z m552 -108 l0 -605 -376 0 c-207 0 -374 4 -372 8 5 13 743
1201 746 1202 1 0 2 -272 2 -605z"/>
</g>
</svg>
