<?xml version="1.0" standalone="no"?>
<!DOCTYPE svg PUBLIC "-//W3C//DTD SVG 20010904//EN"
 "http://www.w3.org/TR/2001/REC-SVG-20010904/DTD/svg10.dtd">
<svg version="1.0" xmlns="http://www.w3.org/2000/svg"
 width="997.000000pt" height="109.000000pt" viewBox="0 0 997.000000 109.000000"
 preserveAspectRatio="xMidYMid meet">
<metadata>
Created by potrace 1.16, written by Peter Selinger 2001-2019
</metadata>
<g transform="translate(0.000000,109.000000) scale(0.100000,-0.100000)"
fill="#000000" stroke="none">
<path d="M5870 555 l0 -535 70 0 69 0 3 279 3 279 25 27 c34 37 79 55 137 55
68 0 113 -26 141 -80 21 -42 22 -55 22 -302 l0 -258 70 0 70 0 0 273 c0 291
-5 334 -50 397 -25 36 -81 73 -125 84 -16 4 -58 7 -92 7 -78 0 -132 -26 -173
-83 l-30 -41 0 216 0 217 -70 0 -70 0 0 -535z"/>
<path d="M4210 965 l0 -65 181 0 180 0 -3 -327 c-3 -300 -5 -331 -22 -367 -30
-59 -67 -78 -148 -74 -77 4 -104 22 -138 94 -22 49 -22 49 -100 30 -50 -11
-55 -15 -51 -37 6 -44 50 -117 93 -153 57 -49 130 -70 227 -64 90 5 153 31
204 82 75 74 72 53 75 524 l3 422 -251 0 -250 0 0 -65z"/>
<path d="M307 778 c-110 -14 -205 -85 -248 -186 -33 -75 -45 -188 -31 -281 28
-193 137 -300 317 -309 124 -7 185 14 258 88 31 33 57 67 57 77 0 10 -19 30
-44 46 -45 28 -66 34 -66 17 0 -22 -64 -80 -106 -96 -64 -24 -145 -14 -193 24
-68 55 -76 80 -76 232 0 129 1 137 27 182 19 32 41 52 71 67 51 25 135 28 176
6 29 -14 75 -63 84 -87 5 -17 117 36 117 55 0 21 -54 91 -88 115 -62 45 -155
63 -255 50z"/>
<path d="M1115 779 c-72 -8 -104 -20 -159 -59 -36 -27 -85 -87 -74 -94 1 -1
22 -17 46 -35 l43 -34 29 35 c40 48 90 70 164 72 108 2 166 -54 166 -160 l0
-51 -142 -5 c-150 -6 -201 -17 -258 -59 -44 -33 -70 -94 -70 -165 1 -141 93
-223 255 -223 89 -1 163 31 197 83 13 20 25 36 28 36 3 0 13 -18 23 -39 22
-48 51 -61 137 -61 l70 0 0 54 0 53 -40 7 c-24 4 -43 14 -50 25 -6 12 -10 103
-10 223 -1 141 -5 214 -14 240 -42 116 -169 175 -341 157z m215 -494 c0 -37
-6 -78 -14 -93 -51 -98 -272 -104 -306 -9 -17 50 -12 85 18 118 34 38 70 47
200 48 l102 1 0 -65z"/>
<path d="M2013 779 c-113 -14 -190 -60 -224 -134 -36 -78 -20 -173 37 -227 43
-40 95 -58 244 -84 158 -27 184 -41 188 -103 4 -57 -33 -94 -110 -110 -98 -21
-205 6 -287 72 l-44 35 -44 -36 c-24 -20 -43 -39 -43 -43 0 -14 81 -79 127
-102 75 -38 144 -50 252 -45 115 6 184 32 235 88 43 48 59 98 54 170 -8 115
-71 159 -282 195 -180 31 -206 46 -206 116 0 107 226 135 347 42 l45 -35 45
44 44 43 -33 28 c-86 73 -205 102 -345 86z"/>
<path d="M2845 779 c-72 -8 -104 -20 -159 -59 -36 -27 -85 -87 -74 -94 1 -1
22 -17 46 -35 l43 -34 29 35 c40 48 90 70 164 72 108 2 166 -54 166 -160 l0
-51 -142 -5 c-150 -6 -201 -17 -258 -59 -44 -33 -70 -94 -70 -165 1 -141 93
-223 255 -223 89 -1 163 31 197 83 13 20 25 36 28 36 3 0 13 -18 23 -39 22
-48 51 -61 137 -61 l70 0 0 54 0 53 -40 7 c-24 4 -43 14 -50 25 -6 12 -10 103
-10 223 -1 141 -5 214 -14 240 -42 116 -169 175 -341 157z m215 -494 c0 -37
-6 -78 -14 -93 -51 -98 -272 -104 -306 -9 -17 50 -12 85 18 118 34 38 70 47
200 48 l102 1 0 -65z"/>
<path d="M5258 779 c-180 -20 -290 -164 -290 -382 -1 -180 61 -300 187 -364
105 -54 275 -40 367 30 46 35 102 119 118 177 18 63 23 186 11 252 -40 205
-184 310 -393 287z m139 -131 c42 -12 89 -67 103 -119 18 -67 9 -266 -14 -312
-38 -77 -156 -118 -249 -88 -55 19 -103 78 -117 148 -19 89 -8 241 21 293 48
84 142 113 256 78z"/>
<path d="M7040 780 c-62 -8 -105 -33 -140 -82 l-30 -41 0 56 0 57 -70 0 -70 0
0 -375 0 -375 70 0 69 0 3 279 3 279 25 27 c34 37 79 55 137 55 68 0 113 -26
141 -80 21 -42 22 -55 22 -302 l0 -258 70 0 70 0 0 273 c0 291 -5 334 -50 397
-47 67 -148 103 -250 90z"/>
<path d="M7843 779 c-113 -14 -190 -60 -224 -134 -36 -78 -20 -173 37 -227 43
-40 95 -58 244 -84 158 -27 184 -41 188 -103 4 -57 -33 -94 -110 -110 -98 -21
-205 6 -287 72 l-44 35 -44 -36 c-24 -20 -43 -39 -43 -43 0 -14 81 -79 127
-102 75 -38 144 -50 252 -45 115 6 184 32 235 88 43 48 59 98 54 170 -8 115
-71 159 -282 195 -180 31 -206 46 -206 116 0 107 226 135 347 42 l45 -35 45
44 44 43 -33 28 c-86 73 -205 102 -345 86z"/>
<path d="M8708 779 c-180 -20 -290 -164 -290 -382 -1 -180 61 -300 187 -364
105 -54 275 -40 367 30 46 35 102 119 118 177 18 63 23 186 11 252 -40 205
-184 310 -393 287z m139 -131 c42 -12 89 -67 103 -119 18 -67 9 -266 -14 -312
-38 -77 -156 -118 -249 -88 -55 19 -103 78 -117 148 -19 89 -8 241 21 293 48
84 142 113 256 78z"/>
<path d="M9640 780 c-62 -8 -105 -33 -140 -82 l-30 -41 0 56 0 57 -70 0 -70 0
0 -375 0 -375 70 0 69 0 3 279 3 279 25 27 c34 37 79 55 137 55 68 0 113 -26
141 -80 21 -42 22 -55 22 -302 l0 -258 70 0 70 0 0 273 c0 291 -5 334 -50 397
-47 67 -148 103 -250 90z"/>
</g>
</svg>
