<svg version="1" xmlns="http://www.w3.org/2000/svg" width="1070.667" height="1070.667" viewBox="0 0 803.000000 803.000000"><path d="M0 401.5V803h803V0H0v401.5zM189.8 102c1 1.7.9 2.5-.4 4.5-1.8 2.7-3.4 3.1-5.2 1.3-.7-.7-1.2-.9-1.2-.5s-.9.3-2-.3c-2.5-1.3-2.6-4.5-.2-5.9 3-1.8 7.6-1.3 9 .9zm53.8 4.6c-.4.9-1.5 1.4-2.8 1.2-3.2-.4-3.1-4 .2-4.8 2.6-.7 3.7.8 2.6 3.6zm77.9 1.1c-2.2 1.5-2.8 1.2-1.9-1 .3-.9 1.2-1.3 2.1-1 1.4.5 1.3.8-.2 2zm6 14.3c-1.9 3.6-2.9 3.9-2.3.5.3-1.3 0-2.6-.6-2.9-.6-.2.1-.5 1.7-.5 2.7-.1 2.7-.1 1.2 2.9zm14.5 3c0 .5-.4 1-1 1-.5 0-1-.5-1-1 0-.6.5-1 1-1 .6 0 1 .4 1 1zm-174.5 5.1c-.4.5-1.3.9-2.2.9-1.3 0-1.3-.3-.3-1.5 1.3-1.5 3.5-1.1 2.5.6zm135.3 4.4c-.3.4-2.3.5-4.4.3l-3.9-.4 3.5-1c3.2-1 6.2-.3 4.8 1.1zm106.2 3.3c0 1.5-.2 1.5-1 .2-1.3-2-1.3-3.3 0-2.5.6.3 1 1.4 1 2.3zm39.7.4c1.6-.3 3.3.6 5.2 2.7 3.4 3.6 6 3.9 8.7 1 1.6-1.7 1.6-2.2.4-2.9-1.3-.8-1.3-1 .1-1 .9 0 2.4.9 3.4 2s2.4 2 3.2 2c.7 0 1.6.7 1.9 1.5.4.8 1.5 1.5 2.5 1.5 1.6 0 1.8-.5 1.4-3.1-.5-2.5-.2-3 1.1-2.7 1 .2 1.8 1.3 1.9 2.4.2 2.8 3.1 5.9 3.9 4.1.3-.8.8-.7 1.6.5.8 1.3 2.1 1.7 5.1 1.4 2.2-.2 4.2-.6 4.6-1 1-1 2.5-.7 1.8.4-.4.6.6 1 2.2 1.1 1.5 0 2.2.3 1.6.6-2 .7-1.5 2.3.6 2.3 1.1 0 2.3.5 2.6 1 .4.6 1.1.8 1.6.5.5-.4.9 0 .9.9 0 .8.6 1.7 1.3 1.9.9.4.9.8-.2 1.5-1 .7-1.1 1.4-.2 2.8 1 1.8 1 1.8 1.1.1 0-1 .4-1.6.9-1.3.4.3.6 1.6.4 3-.4 1.8.2 2.9 2.1 4.1 3 2 3.4 4.5.9 4.5-1.7.1-1.7.1 0 1.1 2.1 1.3 2.3 3.1.1 2.2-1.3-.5-1.2.1.5 3.4 1.1 2.2 1.8 4.3 1.5 4.6-.9.9 3.2 7.2 5.4 8.2 2.2 1 5.9 8.8 5.4 11.1-.1.7.4 1.4 1.3 1.8.8.3 1.5 1.4 1.5 2.4 0 1.1.7 2.5 1.5 3.2.8.7 1.5 2.3 1.5 3.6 0 1.2.5 2.6 1 2.9.6.4.8 1.5.5 2.6-.7 2.1.5 2.5 2.3.7.9-.9 1.2-.6 1.2 1.5 0 1.5-.6 2.7-1.2 2.7-.8.1-.6.6.5 1.4.9.7 1.7 1.8 1.7 2.5 0 .6.5 1.1 1 1.1 1.8 0 7 4.3 7 5.7 0 .7.7 1.3 1.5 1.3 1 0 1.5 1.1 1.5 3.5 0 3.3.2 3.5 3.1 3.5 3.1 0 3.2-.1 2.6-4-.3-2.2-.2-4 .2-4 1.6 0 3.3 4.9 2.7 7.4-.4 1.5-.2 2.6.3 2.6.6 0 1.5 1 2.2 2.1.7 1.3.7 1.9.1 1.5-.6-.3-1.3-.2-1.7.4-.3.5-.1 1 .4 1 .6 0 1.1.9 1.1 2s.9 2.5 2 3.2c1.3.9 2 2.4 2 4.6 0 7.1 5.8 12.4 7.5 6.9 1.2-3.9.9-12.8-.5-13.7-.9-.5-.9-.9-.1-1.4.6-.4 1.7-.4 2.4 0 .8.5.7.2-.2-.9-2.3-2.9-.4-3.1 2.5-.2 1.5 1.5 2.4 2 2.1 1.1-.4-1-.1-1.6.8-1.6.8 0 1.5-.5 1.5-1 0-.6.9-1 2-1 1.4 0 1.8-.5 1.3-1.7-.4-1.1-.3-1.4.5-.9.7.4 1.2.2 1.2-.3 0-.6 1.4-1.1 3-1.1 2 0 3 .5 3 1.5 0 .9.6 1.8 1.4 2.1 2.8 1.1 9.3 20.7 10.2 30.9.3 2.7.8 6.3 1.3 8 .5 1.6.7 5 .4 7.5-.2 2.5-.6 13.7-.9 25-.5 21.5-1.2 29.2-3.8 40-.9 3.6-1.9 8.1-2.2 10-.3 1.9-1.2 4.6-1.9 6-1.6 3-8.4 10.4-10.5 11.4-.8.4-2.6 1.3-3.9 2.1-5.2 3-6.8-.7-7.1-17-.1-8.5-3.4-34.6-5.4-43.6-1.6-7-2.4-13.2-3.1-22.2-.4-5.6-3-11-6.2-13-2.2-1.4-5.5-9.7-4.9-12.3.8-2.9-.9-3.2-2.4-.4-.8 1.4-.6 2.7.9 5.3 1 1.9 1.6 4 1.1 4.8-.4.8-.4 2.5.1 3.9.4 1.4.7 2 .8 1.4.1-1.4 4.1-2.6 4.1-1.3 0 .5-.7.9-1.6.9-1.3 0-1.4.3-.5 1.4 1.3 1.6-.2 3.2-1.9 2.1-1.6-1-1.2 4.5.5 6.2 1.2 1.2 1.3 1.8.4 2.9-.9 1.1-.8 1.8.1 3 1.3 1.5 1.6 2.9 2.3 11.1.5 4.9 0 5.8-2.1 4-1.3-1-1.5-.9-.9.5.4 1.2.2 1.8-.8 1.8-2 0-1.9 1.7 0 2.8 1.3.6 1.4 1.4.6 3.5-.8 2.1-.8 2.5.4 2 1.7-.6 1.7-.2.6 9.1-.7 5.1-.6 7.8.4 10.7.8 2.1 1.1 3.9.7 3.9-.4 0 0 .5 1 1 1 .6 1.4 1.8 1.1 3-.3 1.1-.1 2 .4 2 .6 0 1.8 2.1 2.7 4.7 1 2.7 2.1 5.6 2.6 6.5.6 1.1.5 1.8-.3 2.1-.9.3-.9.9.1 2.6 1 1.8 1 2.2-.3 2.7-.8.4-1.5 1-1.5 1.5 0 .4.6.6 1.3.3 1.3-.4 3.7 5.2 3.7 8.5 0 .7.7 1.9 1.5 2.8 1.1 1 1.3 1.9.6 2.7-.8.9-.6 1.9.4 3.2.8 1 1.5 3.8 1.5 6.1 0 2.4.4 4.3.9 4.3 1.8 0 1.8 3.8 0 5.4-2.1 1.7-2.5 3.6-.9 3.6.6 0 1 .7 1 1.5s-.4 1.5-.8 1.5c-.5 0-.8 1.5-.8 3.4.1 1.9.4 3.2.9 2.9.4-.2.7.5.7 1.6 0 1 .6 2.2 1.3 2.5.6.4.2.4-1 .2-1.7-.3-2.3.1-2.3 1.5 0 1.2.5 1.6 1.4 1.3 2.6-1 3 1.9.5 3.8-2.1 1.8-2.2 2.1-.7 2.9 1 .5 1.5 1.6 1.1 2.5-.5 1.3-.8 1.3-2.9-.1-3-1.9-4-1.9-2 .1.9.8 1.6 2.1 1.6 2.9 0 .7.3 2.1.6 3 .4 1 .2 1.5-.7 1.3-.7-.2-1.8.7-2.4 1.9-.5 1.3-1.5 2.3-2.2 2.3-.7 0-1.3.7-1.3 1.5s.7 1.5 1.5 1.5 1.5.4 1.5 1c0 .5-.7.7-1.7.3-1.3-.5-1.5-.2-1.1 1.5.4 1.6.2 2.2-.9 2.2-1.3 0-1.3.3-.3 1.5s.9 1.5-.5 1.5c-1.2 0-1.6.6-1.2 2 .3 1.1 0 2.3-.6 2.8-.7.4-2.1 2.4-3.2 4.5-1 2.1-3.1 4.9-4.5 6.1-1.5 1.2-2.5 2.7-2.3 3.3.2.6-1.9 3.5-4.7 6.5-8 8.2-16.4 22.3-9.5 15.8l2.5-2.3v3.1c0 3.1 0 3.2 1.9 1.3 1.1-1.1 2.2-2.7 2.5-3.8.3-1 .3-.2 0 1.7s-.6 5.3-.8 7.5c-.1 2.2-.6 4.8-1 5.8-.5.9-.6 2.6-.3 3.7s.1 2.3-.5 2.6c-.5.3-.8 2.5-.7 4.8.1 2.2-.2 4.9-.5 5.8-.4.9-.3 2.5.3 3.7 1.4 2.6 1.4 3.1-.4 3.1-.8 0-1.5.3-1.5.7-.4 6.4-1.2 16.1-1.5 17-.3.7-.1 1.3.4 1.3.4 0 .8 3.4.8 7.5 0 5.9-.3 7.5-1.5 7.5-1.1 0-1.3.7-.7 2.8 1 4.1 1.2 10.3.2 10.9-.4.2-.2 1.1.4 2 1 1.1 1 1.6 0 2.3-.8.5-1.3 2.8-1.2 6.5 0 3.2-.4 6.6-1 7.6-.7 1.4-.6 1.9.4 1.9 1.1 0 1.4 1.1 1.1 4.7-.2 2.7-.2 4.3.1 3.7.3-.7 1.6-1 2.8-.8 2.1.4 2.1.4-.1-.6-1.8-.8-2.2-1.5-1.6-3.2.3-1.3 1.1-2.4 1.5-2.6.5-.2.9-1.2.9-2.2 0-1 .4-2.2 1-2.5 1.1-.7.2-6.4-1.2-8.2-.7-.8-.3-2.2 1.1-4.2 1.2-1.6 2.1-3.4 2.1-4.1 0-.6.7-1.8 1.5-2.6 1.6-1.7 2-4.4.6-4.4-1.5 0-.5-14.3 1.2-17.7 1-1.8 1.7-3.9 1.7-4.8 0-.8.5-1.5 1.1-1.5.7 0 1.8-.8 2.4-1.7 1.2-1.7 1.4-1.7 3.4.1 1.2 1.1 2.1 2.7 2.1 3.7s.9 3.8 1.9 6.1c2 4.4 4.3 22.8 3.6 28.3-.2 1.6-.6 5.5-.9 8.5-.3 3-.9 6.6-1.2 7.9-.6 1.9-.4 2.2.6 1.6.8-.5.4.5-.8 2.2-1.2 1.7-2.2 4.5-2.2 6.1 0 1.7-.4 3.4-1 3.7-.5.3-1 1.6-1 2.8 0 1.3-.8 3.3-1.7 4.7-1 1.4-1.6 4-1.5 6.5.1 2.2-.1 3.4-.4 2.7-.9-2-2.4-1.3-2.4 1.2 0 1.3-.7 2.6-1.5 3-.8.3-1.5 1.2-1.5 2.1 0 .8-.4 1.5-1 1.5-1.4 0-9.8 8.8-10.5 11.1-.4 1-1.1 1.9-1.7 1.9-.6 0-.8.3-.5.6 1.1 1.1-1.2 4.4-2.7 3.8-.8-.3-1.6.4-1.9 1.6-.3 1.4-1 1.9-1.7 1.5-.7-.4-2.6.8-4.6 2.9-1.9 2-4.1 3.6-4.9 3.6-.8 0-2.2 1.1-3 2.4-1.4 2.1-3.7 3.4-7 4-.5.1-.9.8-.7 1.5.1.7-.2 1-.7.7-.5-.4-1.5 0-2.3.7-.7.8-1.9 1.2-2.7.9-.8-.3-1.9.2-2.5.9-1.6 2.1-11.4 5-11.9 3.5-.3-.8-.8-.8-1.8.2-1 .9-1 1.2 0 1.2.7 0 1 .4.6 1-.3.5-1.2.7-2 .4-.7-.3-2.2.3-3.3 1.4-1 1-2.5 1.9-3.3 1.9-.8 0-5.2 1.5-9.9 3.3-4.7 1.8-10.2 3.2-12.2 3.1-2 0-4 .4-4.3.9-.3.6-2 1-3.6 1-1.8 0-2.8.4-2.4 1 .3.6.1 1-.4 1-.6 0-1.1-.4-1.1-.9 0-.6-1.2-.6-3-.1-1.7.5-6.3 1.2-10.3 1.6-4 .4-7.5 1.1-7.8 1.7-.4.5-1.3.6-2 .2-1.8-1.2-7.2-1.3-8.6-.2-.8.6-1.3.6-1.3 0s-6.3-1.3-14.7-1.7c-16.8-.7-31.1-2.5-29.3-3.6.8-.5.2-1-1.5-1.4-1.4-.4-3-.4-3.5-.1-.5.3-1.1.1-1.4-.4-.3-.5-1.5-.7-2.6-.4-1.1.3-2 0-2-.6s-.9-1.1-2-1.1c-1 0-3.2-.5-4.7-1.1-1.5-.6-3.7-1.5-4.8-1.9-1.1-.5-4.1-1.7-6.7-2.9-2.6-1.2-5.2-2.1-5.7-2.1-.6 0-2.7-1.1-4.7-2.5s-4-2.3-4.4-2c-.4.3-1-.1-1.3-.9-.3-.8-1.9-1.7-3.6-2.1-1.7-.4-3.9-1.7-4.8-2.9-1-1.2-2.6-2.5-3.6-2.9-.9-.3-1.7-1.3-1.7-2.2 0-.8-.9-1.5-2-1.5-1.3 0-2-.7-2-2 0-1.1-.4-2-.9-2s-2.6-1.7-4.7-3.7c-2.2-2.1-5.6-5.1-7.7-6.8-2-1.6-3.7-3.8-3.7-4.7 0-1-.9-2.2-2-2.8-1.1-.6-2-1.7-2-2.5s-.5-1.5-1-1.5c-.6 0-1.4-.8-1.7-1.8-.4-.9-2.4-3.4-4.5-5.4-2.1-2-3.8-4.1-3.8-4.7 0-.6-1.4-3.3-3.1-6.1-2.8-4.6-4.1-8.9-4.1-13.3.1-.9-.3-1.5-.7-1.3-.4.3-1.6-2.9-2.5-7.2-1-4.2-2.2-9.1-2.6-10.7-.5-1.7-.9-6.4-.8-10.5 0-4.1-.1-8-.3-8.5-.6-2.2 1.4-16.9 2.8-20.4 3.2-8 3.8-9.1 5-9.1.6 0 1.8.9 2.6 2 1.4 2 2.9 1.8 2.1-.4-.3-.7.2-2.9 1.1-4.9 1.2-2.9 2.1-3.7 4-3.7 1.4 0 2.5-.5 2.5-1.1 0-.7-.9-.9-2.1-.6-1.3.3-1.9.1-1.6-.6.2-.7.9-1.2 1.5-1.1.7.1 2.1.2 3.2.2 1.3.2 1.8.7 1.3 1.8-.5 1.4-.3 1.5 1.5.5 1.3-.7 2.2-2.3 2.4-4.4.4-4.1 1.9-4.1 3 0 .5 1.9 1.5 3.3 2.3 3.3.8 0 1.5.4 1.5 1 0 .5-.6 1-1.2 1-.9 0-1 .2-.2.8.7.4 1.3 1.6 1.5 2.6.4 2.1 2.9 3.5 2.9 1.6 0-.6-.7-1.8-1.6-2.7-1.4-1.4-1.3-1.8.7-3.9 2.4-2.6 1.9-4.5-.6-2.4-.9.7-1.9 1-2.2.6-.4-.4-.2-1.1.5-1.5 1.8-1.1 3.4-7.1 1.8-7.1-2.2 0-3.6-6.1-2.7-11.8.4-2.8.4-5.2 0-5.2-.5 0-.9-.5-.9-1.2s-1.8-3-4-5.3c-6-6-11-11.8-11-12.8 0-.4-.5-1.3-1-2-4.7-5.6-6-7.4-6-8.5 0-.6-.3-1.2-.8-1.2-.4 0-1.3-.9-2-2.1-.8-1.2-.9-1.8-.3-1.4.6.3 1.1.2 1.1-.2 0-.5-.9-1.4-2-2.1-1.1-.7-2-2.1-2-3.3 0-1.1-.7-3.3-1.5-5-.9-1.6-1.3-3.4-1-3.9.3-.5.1-1.1-.4-1.4-.5-.3-.7-1.5-.4-2.6.3-1.1.1-2-.5-2-1.2 0-2.3-4.9-2.6-11.8-.1-2.9-.8-5.8-1.4-6.4-.7-.7-1.2-2.9-1.2-5 0-2.7-.4-3.8-1.5-3.8-.8 0-1.5.5-1.5 1 0 1.3-4.4.3-9-2.1-5.2-2.6-12-12.1-12-16.8 0-1-.3-2.1-.7-2.3-1.2-.5-4.3-6.4-4.3-8.2 0-.9-.4-1.6-.8-1.6-1.5 0-5.3-9.2-4.7-11.4.4-1.3.3-1.6-.2-.9-.6.8-1.4-1.5-2.2-6.5-.8-4.2-1.7-8.2-2.1-8.7-.5-.6-1.1-3.7-1.5-7-.4-3.3-1.1-6.5-1.6-7.1-.8-1-2-8.3-2.3-13.9 0-1.7-.7-3.6-1.4-4.3-.6-.8-1-1.8-.7-2.3.4-.5.3-1.5-.1-2.1-1.1-1.7-1.2-2.9-1.9-20.3-.4-8.3-.9-15.2-1.1-15.4-.2-.2.2-1.1.9-1.9.9-1.3.9-1.4 0-.8-2.2 1.3-1.4-.7 2.3-5.7 2-2.7 3.8-4.6 4.1-4.3.4.3 1.5-.1 2.5-1.1 1.7-1.5 1.8-1.5 1.8 0 0 1-.6 1.7-1.2 1.7-.9.1-.7.5.3 1.3.9.7 1.9 2.1 2.2 3.2.4 1.9.5 1.9.6-.1 0-1.2.8-2.5 1.7-2.8 1.1-.4 1.5-.2 1.1.8-.3.7.1 2.5.8 4 .8 1.5 1 2.4.5 2.1-.6-.4-1 .1-1 1s.5 1.3 1 1c.6-.3 1 .3 1 1.4 0 1.2.7 2.1 1.5 2.1.9 0 1.8.7 2.1 1.5.4.8 1.2 1.5 2 1.5s1.4.3 1.5.7c.1.5.3 2.6.5 4.7.1 2.1.8 4.4 1.4 5 .5.5 1 1.8 1 2.8 0 1 .5 1.8 1.1 1.8.7 0 .8-.7.4-1.8-.4-.9-.9-2.8-1.1-4.2-.2-1.4-.1-1.7.2-.8 1 3.2 2.6 2 1.9-1.3-.6-2.5-.4-3 .6-2.3 1.2.6 1.2.5.1-.8-1.1-1.4-1-1.8.7-2.8 1.2-.6 2.1-2 2.1-3 0-1.1.5-2 1.1-2 .6 0 .7-.5.2-1.3-1.2-1.9-1.3-4-.2-5.3 1-1.2.7-6.3-.5-8.2-.4-.7-.4-1.2.1-1.2 1.1 0 3.3-4.9 3.3-7.4 0-1.2.5-2.8 1.1-3.6.8-1.1.9-.7.4 1.7-.4 1.8-.4 3.3-.1 3.3 1.2 0 3.5-6 2.9-7.6-.5-1.3-.3-1.6.9-1.1 1 .3 1.9 0 2.2-.9.4-1.1-.1-1.3-2.2-.9-1.5.3-2.1.2-1.4-.1 1.7-.8 1.5-2.4-.4-2.4-1 0-1.4-.6-1-1.5.3-.8.1-2.5-.4-3.7-.7-1.8-.9-1.9-.9-.6-.1 1-.5 1.8-.9 1.8-.5 0-.7-1.3-.4-2.9.3-2 .8-2.8 1.8-2.4.8.3 1.4-.1 1.4-1.1 0-.9.5-1.6 1-1.6.6 0 1 .7 1 1.6 0 .8.4 1.2 1 .9 1.3-.8 1.3-4.2-.1-5-.5-.4-1.8 0-2.8.9-2.5 2.3-2.8 2-2.5-2.2.4-7.2.3-6.9 1.5-5.2.8 1.1.9.5.4-2.3-.4-2.6-.2-3.7.7-3.7.9 0 .9-.3 0-1.2-1-1-1.5-1-2.3.2-.8 1.2-.9 1-.4-.7.5-1.8.3-2.2-.9-1.7-1.1.4-1.6.1-1.6-1 0-.9.5-1.6 1-1.6 1.9 0 1-3.1-1.2-3.9-1.7-.6-2.4-.5-2.6.5-.2.8-1.4 1.4-2.7 1.4-1.8 0-2.3-.4-1.9-1.5.4-1 0-1.5-1.3-1.5-2.1 0-6.6 2.9-4.5 3 .6 0 1.2.9 1.2 1.9 0 3.8-1.6 2.9-2.9-1.5-1.3-4.4-1.3-4.6 1.6-7.4l3-3-.4 2.8-.5 2.7 1.7-2.3c1.3-1.8 1.6-3.4 1.1-6.4-.7-4.5 1.4-9.1 3.8-8.2 1 .4 1.5-.9 2-4.5.7-5.6 1.9-7.1 3.5-4.4.9 1.5 1 1.6 1.1.2 0-.9.9-2.6 2-3.9 2.1-2.4 2.2-2.8 2.4-7 .1-1.4.7-2.5 1.6-2.6 3-.2 3.2-.4 2-1.9-1.1-1.3-.8-1.5 1.4-1.5 2.6 0 5.9-1.4 8.3-3.7 1.7-1.5 1.6-2.3-.2-2.3-2.1 0-1.9-1.6.7-4.2 1.9-1.9 2.2-2 3.3-.5 1.4 1.9 3.5 2.3 3.5.6 0-.5 1.3-2.2 2.9-3.7 1.6-1.5 3.6-4.2 4.6-6 .9-1.9 1.9-3.1 2.2-2.8.4.3 1.1-.4 1.7-1.7.9-1.7 2-2.2 4.8-2.2 4.2 0 5.9-1.2 3.8-2.5-1.2-.7-.7-1.1 1.8-1.6 1.7-.4 3.2-1 3.2-1.5s.8-.9 1.8-.9 2.7-.7 3.8-1.5c2.1-1.6 6.4-2 6.4-.6 0 1.1-2.5 2.1-5.1 2.1-1.5 0-1.9.5-1.4 1.9.3 1.2 0 2.1-1 2.5-.9.3-1.4 1-1 1.6.3.5 1.9-.4 3.5-2 2.9-2.9 6.7-3.9 8.5-2.1.6.4 3.2 1.1 5.8 1.5 4.3.5 5 .4 5.4-1.4.3-1.1 1-2 1.5-2 1.3 0 5.2 2.1 5.9 3.2.6 1 4.7-.8 6-2.5.3-.5 2.5-1.1 4.9-1.4 4-.6 4.3-.5 3.8 1.5-.5 1.7-.2 2.2 1.3 2.2 1.6 0 1.8-.3 1-1.9-.9-1.6-.6-2 2.4-2.5 2-.4 4-.4 4.5-.1 1.5.9 7.1-.5 6.4-1.6-.3-.5-1.3-.9-2.3-.9-1.2 0-2-.9-2.3-2.5-.7-3.3.9-3.2 6.3.5 4.5 3.1 12.1 4.2 13.4 2 .4-.6 1.5-.8 2.5-.5 1 .3 2.1.1 2.5-.5.3-.5-.1-1-.9-1s-2-.9-2.6-1.9c-.9-1.9-.9-1.9 3-.4 2.2.9 4 2 4 2.4 0 .5.7.6 1.5.3 1.1-.5 1.3-.2.9 1-.7 1.7.3 2.1 2.4.7.8-.4 1.2-1.7 1-2.7-.2-1.6.2-1.8 2.9-1.6 1.8.2 4.8-.4 6.7-1.3 1.9-.9 4.3-1.6 5.3-1.5 3.3.4 4.2 0 3.7-1.4-.3-.8-1.4-1.6-2.5-1.9-1-.3-1.9-1-1.9-1.6 0-.7.8-.7 2.7 0 1.9.7 2.8.7 3.4-.3.4-.7 2.8-1.2 5.8-1.1 4.4.1 5.1-.2 5.1-1.8 0-2.6 2-3.2 5.5-1.9 2.2.8 3 .8 3.7-.2.6-1 .8-1 .8 0 0 .8 1.1 1.1 3.8.7 2-.3 6.3-.8 9.5-1.2 3.1-.3 5.7-1 5.7-1.5 0-.4 1.2-.1 2.7.9 1.5 1 3.7 1.6 5 1.5zm16.3-2.4c0 .5-.7.9-1.5.9s-1.2-.4-.9-.9c.3-.4.9-.8 1.5-.8.5 0 .9.4.9.8zM261.5 143c.3.5.1 1-.4 1-.6 0-1.1-.5-1.1-1 0-.6.2-1 .4-1 .3 0 .8.4 1.1 1zm91.6 1.7c.7 1 .9 1.5.5 1.1-.5-.4-1.5-.3-2.3.3-1 .9-1.3.8-1.3-.3 0-1.3.9-2.8 1.5-2.8.2 0 .9.8 1.6 1.7zM366 149c0 .5-.4 1-1 1-.5 0-1-.5-1-1 0-.6.5-1 1-1 .6 0 1 .4 1 1zm-246.2 1.6c1.2.8 2.2 2.5 2.2 3.6 0 5.4-7.4 7.9-10.4 3.6-2-2.9-2-4.7.1-7 2-2.2 5.1-2.3 8.1-.2zM290 150c0 .5-.4 1-1 1-.5 0-1-.5-1-1 0-.6.5-1 1-1 .6 0 1 .4 1 1zm22.4-.1c.9 1.5-.4 3.9-2.4 4.4-2.1.6-5.2-1.2-3.3-1.9.7-.3.9-1.2.6-2-.4-1 .2-1.4 2-1.4 1.4 0 2.8.4 3.1.9zm-265.6 3.9c.2 1.3-.2 3-.8 3.8-2.4 2.7-8.5 1-7.4-2.1.3-.7.1-1.6-.5-2-.6-.3-1.1 0-1.1.8 0 1.9-8.2 5.7-10.8 5-2.6-.6-2.4-5.9.2-5.7.9.1 1.3-.2 1-.7-.3-.5 2.3-.8 6-.6 3.6.2 6.6 0 6.6-.5s1.5-.8 3.3-.6c2.5.2 3.3.8 3.5 2.6zM366 152c0 .5-.7 1-1.6 1-.8 0-1.2-.5-.9-1 .3-.6 1-1 1.6-1 .5 0 .9.4.9 1zm-277.8 1.7c1 .9 1.8 2.2 1.8 2.9 0 .7.7 2 1.6 2.9 2.5 2.5.5 3.5-4.4 2.4-7.1-1.6-9.3-5.2-4.9-8.2 2.9-2 3.7-2.1 5.9 0zM247 173.1c0 1.1-3.3 2-3.9 1.1-.3-.5-1.3-1.1-2.1-1.4-.8-.3.2-.5 2.2-.4 2.1 0 3.8.4 3.8.7zm-11 4.4c0 1.9.5 3.5 1 3.5.6 0 1 .7 1 1.5 0 1.9-3.8 1.9-6.2.1-2.2-1.6-2.3-2.6-.4-2.6.7 0 1.6-1.4 2-3 .8-4.1 2.6-3.8 2.6.5zm-214.9 8.8c-.1.4-.1 1.4-.1 2.2 0 .8-.4 1.5-1 1.5-.5 0-1-1.2-1-2.6 0-1.4.5-2.4 1.1-2.2.6.2 1 .7 1 1.1zm3.3 2.2c-.4.8-.8 1.5-1 1.5-.2 0-.4-.7-.4-1.5s.4-1.5 1-1.5c.5 0 .7.7.4 1.5zm44.4 7.3c.4 2.6-2.6 4.2-3.8 2.1-1.1-1.6.7-5.2 2.3-4.6.7.2 1.3 1.3 1.5 2.5zM74 199c0 .7-.6 1-1.4.7-.7-.3-1.9 0-2.5.6-.8.8-1.1.7-1.1-.6 0-.9.5-1.7 1-1.7.6 0 1-.7 1-1.6 0-1.4.2-1.4 1.5 0 .8.8 1.5 2 1.5 2.6zm469 3c.8.5 1.2 1.1.9 1.4-.3.3-1.4-.1-2.5-.9-2.1-1.6-.8-2 1.6-.5zm-423 6.5c0 1.9-3.6 3.9-4.5 2.5-1.1-1.8.3-4 2.5-4 1.1 0 2 .7 2 1.5zm7.8 2.2c-.2 1-1.3 1.9-2.6 2.1-1.7.3-2.2-.2-2.2-1.7 0-1.6.6-2.1 2.6-2.1 1.9 0 2.5.5 2.2 1.7zm417.7 8c-.6 1.6-.8 1.6-1.8.2-.7-.8-2.4-2.4-3.9-3.3-3-1.9-3.8-3.9-1.3-3 .8.4 1.5.1 1.5-.5s1.4.2 3.1 1.9c2.2 2.1 2.9 3.5 2.4 4.7zm20.5-4.3c0-.5.8.7 1.7 2.6 1 1.9 2.1 3.8 2.6 4.1.5.4-.5.8-2.2 1.1-2.2.3-2.8.1-2.1-.7.7-.8.4-1.8-.9-3-1.9-1.7-2-1.6-1.6 2.4.2 2.3-.1 4.1-.6 4.1s-.9-.7-.9-1.5c0-1.8-1.7-2-2.2-.3-.6 1.6-6.3-4-7.2-7-.9-2.9 1.2-3 2.3 0 .6 1.8.9 1.9 1.4.5.4-1 1.4-1.7 2.4-1.7 1.7.1 1.7.1.1 1.4-1 .7-1.8 1.9-1.8 2.6 0 1 .4.9 1.7-.1 1.5-1.3 1.5-1.2.4.9-1.1 2.2-1.1 2.2.8 1 1.2-.7 2.1-2 2.1-3 0-3.3 1.1-4.9 2.6-3.7.8.6 1.4.8 1.4.3zm-413.2 2.8c-.2 1.3-1 2.3-1.8 2.3s-1.6-1-1.8-2.3c-.3-1.7.2-2.2 1.8-2.2s2.1.5 1.8 2.2zm15.2 4.3c0 1.9-2 2.9-3.2 1.7-1.5-1.5-.2-4.3 1.7-3.6.8.3 1.5 1.2 1.5 1.9zm54.9 2.7c-1 .7-1.1 1.1-.2 1.4.8.4.6 1.1-.8 2.5-1 1-2.1 1.9-2.4 1.9-.7 0 .6-6.2 1.8-8.4.9-1.8 1-1.8 1.9-.1.8 1.2.7 2-.3 2.7zM552 224c0 1-.4 2.1-.9 2.4-1 .7-2-2.3-1.4-4.2.6-1.7 2.3-.4 2.3 1.8zm-376 .5c0 .8-.9 1.5-2 1.5-2 0-2.6-1.1-1.3-2.3 1.2-1.3 3.3-.7 3.3.8zm390.5.5c.3.5.1 1-.4 1-.6 0-1.1-.5-1.1-1 0-.6.2-1 .4-1 .3 0 .8.4 1.1 1zm-367.7 4.8c.2 1.2.8 2.2 1.4 2.2.5 0 .8-.7.4-1.5-.3-.9 0-1.5.9-1.5.8 0 1.5.6 1.5 1.4 0 2.5-1.1 4.5-2.3 4.1-.7-.2-2.4-.6-3.9-.9-2.1-.5-2.8-1.2-2.8-3 0-1.2.3-2.6.7-3 1.4-1.3 3.8-.1 4.1 2.2zm362.5 1.8c-.7 1.9-4.3 2.8-5.6 1.5-.8-.8-.5-1.1 1.2-1.1 1.5 0 2.5-.7 2.8-2.1.4-1.5.8-1.7 1.3-.8.5.7.6 1.8.3 2.5zm-372 3.8c3.7 2.8 1.2 8.6-3.7 8.6-2.6 0-4.6-2.4-4.6-5.7 0-4 4.7-5.6 8.3-2.9zm378.3 1.3c-1 1-1.9-.5-1-1.8.6-1.1.8-1.1 1.2 0 .2.7.1 1.5-.2 1.8zM211 245c0 .5-.4 1-1 1-.5 0-1-.5-1-1 0-.6.5-1 1-1 .6 0 1 .4 1 1zm9.6 6.7c-1.1 1.1-1.9-.6-1.1-2.4.8-1.7.8-1.7 1.2 0 .3 1 .2 2.1-.1 2.4zm-2.2 3.2c.7 1.1-3 4.4-4.2 3.7-1.6-1-.1-4.6 1.9-4.6 1 0 2 .4 2.3.9zM217 264c0 .5-.4 1-1 1-.5 0-1-.5-1-1 0-.6.5-1 1-1 .6 0 1 .4 1 1zm2 12.2c1.1 2.5 1.4 4.2.7 5.3-.8 1.5-1.1 1.5-3.3-.6-1.3-1.2-2.1-2.6-1.8-3.1.3-.5.1-1.4-.4-2.1-.6-.7-.8-3.2-.5-5.5l.6-4.3 1.5 3.3c.8 1.8 2.2 5 3.2 7zm20-.2c0 .5-.2 1-.4 1-.3 0-.8-.5-1.1-1-.3-.6-.1-1 .4-1 .6 0 1.1.4 1.1 1zm-19 25.8c0 .7-.4 1-1 .7-.5-.3-1-1.6-1-2.8 0-1.8.2-1.9 1-.7.5.8 1 2.1 1 2.8zm6 5.3c0 1.2-.7 1.9-1.9 1.9-1.7 0-1.8-.3-.8-2.4 1.3-2.7 2.7-2.5 2.7.5zm505.5 32.4c3.2 3.1 3.3 7.7.3 10.5-3.3 3-13.1 2.9-15.2-.2-2.5-3.5-2-8.3 1-10.7 3.9-3.1 10.7-2.9 13.9.4zm-3.8 91.4c.7 1 .8 2.2.2 3.3-.6 1.2-.5 1.9.6 2.6 1.2.6 1.6 3.3 1.9 12.3.4 12 .1 14.1-3.3 17.6-2.3 2.4-6.1 2.1-6.1-.5 0-.8-.3-1.2-.7-.9-.3.4-1.4 0-2.4-.9-1.4-1.3-1.6-3.1-1.3-13.6.3-12.1 1.6-18.3 4.2-20.5 1.9-1.6 5.4-1.2 6.9.6zm-599.1 46.4c.1 1.5-.2 2.7-.8 2.7-.7 0-.7.5.1 1.4 1.8 2.1-.9 3.8-3.3 2.1-2.7-2-1.4-9.2 1.6-9 1.5.1 2.2.9 2.4 2.8zM545 499.4c0 .3-.4.8-1 1.1-.5.3-1 .1-1-.4 0-.6.5-1.1 1-1.1.6 0 1 .2 1 .4zm-3.3 25.8c-.3.8-.6.5-.6-.6-.1-1.1.2-1.7.5-1.3.3.3.4 1.2.1 1.9zM281 535.6c0 .8-.4 1.4-1 1.4-.5 0-1-.9-1-2.1 0-1.1.5-1.7 1-1.4.6.3 1 1.3 1 2.1zm-129.1 13c2.6 3.2 2.6 6.1.3 9.2-1.8 2.3-7.2 4.1-10.4 3.4-1.7-.3-3.8-5-3.8-8.4 0-1 1.1-3 2.5-4.3 3.4-3.5 8.6-3.4 11.4.1zM537 609c0 .5-.4 1-1 1-.5 0-1-.5-1-1 0-.6.5-1 1-1 .6 0 1 .4 1 1z"/><path d="M430 139.9c0 .6.5 1.3 1 1.6.6.3 1-.1 1-.9 0-.9-.4-1.6-1-1.6-.5 0-1 .4-1 .9zM373.5 158c-1.7.7-1.5.9 1.2.9 1.7.1 4 .4 5 .7 1.2.5 1.5.4.8-.3-1.6-1.6-4.8-2.2-7-1.3zM343.8 160.7c.7.3 1.6.2 1.9-.1.4-.3-.2-.6-1.3-.5-1.1 0-1.4.3-.6.6zM349.8 160.7c.6.2 1.8.2 2.5 0 .6-.3.1-.5-1.3-.5-1.4 0-1.9.2-1.2.5zM229 225.6c0 .8.5 1.2 1 .9.6-.3 1-1 1-1.6 0-.5-.4-.9-1-.9-.5 0-1 .7-1 1.6zM236.5 227c-.3.5-.2 1 .4 1 .5 0 1.3-.5 1.6-1 .3-.6.2-1-.4-1-.5 0-1.3.4-1.6 1zM238 235.6c0 .8.5 1.2 1 .9.6-.3 1-1 1-1.6 0-.5-.4-.9-1-.9-.5 0-1 .7-1 1.6zM531 239.3c0 .7.9 1.3 1.9 1.3 1.5 0 1.7-.3.9-1.3-.6-.7-1.4-1.3-1.9-1.3s-.9.6-.9 1.3zM533.3 244.2c-.6.7-1.3 2.5-1.7 4-.5 2.1-.3 2.8.8 2.8.8 0 1.7-.6 2-1.3.3-.6.4 0 .1 1.5-.3 1.7-.1 2.8.5 2.8.7 0 .9.8.5 2.1-.5 1.6-.3 2 .6 1.7.8-.3 1.4-1.4 1.4-2.6 0-1.2.8-2.7 1.7-3.4 1.2-.9 1.5-2.2 1.1-4.1-.5-2.6-2.3-3.9-2.3-1.6 0 .5-.5.7-1.1.3-.6-.3-1.6 0-2.1.7-.7 1-.8.6-.4-1.4.7-3 .4-3.4-1.1-1.5zm5.7 5.3c0 .8-.7 1.5-1.6 1.5-1.4 0-1.4-.3-.4-1.5.7-.8 1.4-1.5 1.6-1.5.2 0 .4.7.4 1.5z"/><path d="M539.9 254.4c.6.7.8 2.2.4 3.2-.6 1.6-.5 1.7.9.6 1.1-.9 1.8-1 2.3-.2.3.5.1 1-.4 1-.6 0-1.1 1.1-1.1 2.5s.6 2.5 1.3 2.5c.9 0 .9.2 0 .8-1.6 1-.6 4.9 1.5 5.7 1.5.6 4.2-1.8 4.2-3.7 0-1.3-2.8-.9-3.3.4-.2.7-.8.9-1.3.5-.7-.7.7-2.2 2.9-2.9 1.2-.5-2.5-8.8-3.8-8.8-.7 0-1.5-.7-1.9-1.5-.3-.8-1.1-1.5-1.7-1.5-.9 0-.9.3 0 1.4zM564 272.4c0 .2.7.7 1.6 1 .8.3 1.2.2.9-.4-.6-1-2.5-1.4-2.5-.6zM243.1 282.6c0 1.1.3 1.4.6.6.3-.7.2-1.6-.1-1.9-.3-.4-.6.2-.5 1.3zM549.1 294.4c1.1 1.5 1.1 2 .2 2.3-.7.3-1.3 1-1.3 1.6 0 .6.8.4 1.7-.6 1.6-1.6 1.6-1.8-.2-3.5-1.8-1.6-1.8-1.6-.4.2zM466 298.5c0 2.3-.5 3.5-1.4 3.5-2.1 0-4 2.6-2.3 3.3 3 1.2 7.4-5.3 6-8.9-1-2.6-2.3-1.4-2.3 2.1zM241.9 297.2c0 .2-.2 1.8-.3 3.6-.3 2.7-.1 3.1 1 2.1.8-.6 1.4-1.8 1.4-2.5 0-.8.5-1.4 1-1.4.6 0 1-.5 1-1 0-.8-3.9-1.5-4.1-.8zM240.8 310.2c-.7 1.9.3 5.8 1.3 5.2 1.2-.7 1.2-5.1 0-5.8-.5-.4-1.1-.1-1.3.6zM317.7 316.1c-1.4.8-1.7 1.8-1.2 3.7.8 3.3 2.1 4.2 6.1 4.2 2 0 3.4-.6 3.8-1.6.8-2.1-.1-3.1-1.5-1.7-1.8 1.8-3.9.3-3.9-2.8 0-3.1-.5-3.4-3.3-1.8zM552.5 318.9c-.3.5-.1 1.2.5 1.6.5.3 1-.1 1-.9 0-1.8-.6-2.1-1.5-.7zM239.4 321.3c-1.8 2.1-2.5 4.9-1.3 6.3.9 1.1.7 1.5-.5 2-.9.3-1.6 1.5-1.6 2.5 0 1.1-.7 3.1-1.6 4.5-1.6 2.3-1.5 2.7.1 6.5 1 2.2 1.9 6.1 2 8.7.1 2.6.5 5.8.9 7.2.8 2.8 1.4 7.3 1.5 10.7.1 1.2.7 2.8 1.5 3.5.7.8 1.7 4.6 2.1 8.5.4 4.7 1.2 7.3 2.1 7.7 1.1.4 1.4-.6 1.4-4.7 0-2.9.4-6.7 1-8.5.6-2.4.6-3.9-.3-5.2-.8-1.4-.9-3-.1-5.9.6-2.2.8-3.8.4-3.6-1.5.9-1.7-3.1-.3-4.4 1.1-1 1.2-1.6.4-2.4-.6-.6-1.1-1.9-1.1-2.9s-.6-1.8-1.4-1.8c-.9 0-1.3-1-1.2-2.5 0-1.4.4-2.5.9-2.5.4 0 .7-.5.7-1 0-.6-.7-1-1.6-1-1.4 0-1.4-.3-.4-1.5.8-.9 1.3-4.3 1.2-8.7 0-5.8-.4-7.5-1.9-8.5-1-.8-1.7-1.6-1.5-1.9.8-1.1-.4-2.1-1.4-1.1zM245.2 394c0 1.9.2 2.7.5 1.7.2-.9.2-2.5 0-3.5-.3-.9-.5-.1-.5 1.8zM566.1 404.6c0 1.1.3 1.4.6.6.3-.7.2-1.6-.1-1.9-.3-.4-.6.2-.5 1.3zM461 440.5c0 .8.4 1.5 1 1.5.5 0 .7-.7.4-1.5-.4-.8-.8-1.5-1-1.5-.2 0-.4.7-.4 1.5zM456.6 441.5c-1.9 1.4-1.9 1.5.5 1.5 1.6 0 2.6-.6 2.6-1.5 0-1.9-.7-1.8-3.1 0zM528.5 512c-.3.5.1 1 1 1s1.3-.5 1-1c-.3-.6-.8-1-1-1-.2 0-.7.4-1 1zM288.3 523.1c1.4.8 2.2.8 3 0 .8-.8.3-1.1-1.8-1.1-2.6.1-2.8.2-1.2 1.1zM514.4 523.5c-1.6 1.2-1.7 1.4-.3 1.5.9 0 1.9-.7 2.3-1.5.7-1.9.5-1.9-2 0zM507.8 527.6c-1.6.8-2.8 1.9-2.8 2.4s-1 1-2.2 1.2c-1.3.2-2.7 1.3-3.3 2.5-.5 1.3-1.5 2.3-2 2.3-1.7 0-6.5 2.4-6.5 3.2 0 .5.9.8 2.1.8 1.1 0 1.8.4 1.5.8-.2.4.4.9 1.5.9 1.7.2 1.8-.1.9-1.3-.8-.9-.9-1.4-.2-1.4 1.8 0 2.5 2 1.2 3.5-1.8 2.1.5 2.7 3.7.9 1.5-.9 3.9-3.4 5.3-5.5 1.3-2.2 3.2-3.9 4.2-3.9 1.4 0 1.8-.8 1.8-4 0-4.4-.9-4.8-5.2-2.4zM292 528.6c0 .8.5 1.2 1 .9.6-.3 1-1 1-1.6 0-.5-.4-.9-1-.9-.5 0-1 .7-1 1.6zM486.1 541.2c-1.7 1.7-3.1 3.5-3.1 4 0 .4-.7.8-1.5.8s-1.5.4-1.5 1c0 1.6 1.8 1.2 3.9-.9 1.2-1.2 2.7-1.7 4.5-1.4 2.6.5 3.6-1 1.6-2.2-.6-.4-.8-1.5-.5-2.6.9-2.6.2-2.4-3.4 1.3zM277 550c-.9.6-1 1-.3 1 .6 0 1.5-.5 1.8-1 .8-1.2.4-1.2-1.5 0zM470.5 552c-.3.5.1 1 .9 1 .9 0 1.6-.5 1.6-1 0-.6-.4-1-.9-1-.6 0-1.3.4-1.6 1zM465.1 556.6c-1.2 1.4-2.9 2.3-3.6 2-.9-.3-1.2 0-.8 1 .3.8 1.1 1.2 1.7.9.6-.3 1.8-.8 2.7-1.1 1.7-.6 4.4-5.4 3.1-5.4-.5 0-1.8 1.2-3.1 2.6zM356 556c0 .5.5 1 1.1 1 .5 0 .7-.5.4-1-.3-.6-.8-1-1.1-1-.2 0-.4.4-.4 1zM456 558.9c0 .5-.9 1.1-2 1.4-1.1.3-1.9 1.1-1.8 1.8.2.8-.7 1.5-2 1.7-1.6.3-2.2.8-1.8 1.9.4.9.1 2.2-.5 2.9-.9 1.1-.8 1.4.4 1.4.8 0 1.7-.7 2.1-1.5.3-.8 1.4-1.5 2.5-1.5 1 0 2.2-.7 2.5-1.6.8-2.2.8-2.6-.4-1.9-.5.3-1 .1-1-.5 0-.8.9-1 2.4-.6 3 .7 3.8-.1 2.3-2.5-1.2-2-2.7-2.5-2.7-1zM364.1 561.7c.8 1 2 2.2 2.8 2.7 1.1.7.9 1.1-1 2.2l-2.4 1.3 2.6.1c1.5 0 3.2.7 3.9 1.5 1.4 1.7 3 2 3 .5 0-.6-.6-1-1.4-1-.8 0-1.6-.6-1.9-1.4-.4-1 0-1.2 1.6-.8 2 .5 1.9.2-.6-2.1-1.5-1.5-3.5-2.7-4.3-2.7-.7 0-1.4-.5-1.4-1 0-.6-.5-1-1.1-1-.8 0-.7.6.2 1.7zM442 565c0 .5.4 1 .9 1 .6 0 1.3-.5 1.6-1 .3-.6-.1-1-.9-1-.9 0-1.6.4-1.6 1zM532 572.2c0 .7.5 2 1 2.8.8 1.3 1 1.2 1-.3 0-.9 0-2 .1-2.4 0-.4-.4-.9-1-1.1-.6-.2-1.1.2-1.1 1zM535.1 632.6c0 1.1.3 1.4.6.6.3-.7.2-1.6-.1-1.9-.3-.4-.6.2-.5 1.3zM44 154.9c0 2.5.6 2.7 1.3.6.4-.8.2-1.7-.3-2-.6-.4-1 .3-1 1.4zM29.5 157c-.3.5-.2 1 .4 1 .5 0 1.3-.5 1.6-1 .3-.6.2-1-.4-1-.5 0-1.3.4-1.6 1zM721.7 430.7c-.4.3-.7 1.3-.7 2.2.1 1.3.3 1.3 1.1-.2 1.1-1.9.8-3.3-.4-2z"/></svg>